<svg id="Layer_3" data-name="Layer 3" xmlns="http://www.w3.org/2000/svg" width="42.1" height="33.76" viewBox="0 0 42.1 33.76">
  <defs>
    <style>
      .cls-1 {
        fill: #cc2600;
      }
    </style>
  </defs>
  <title>logo</title>
  <path class="cls-1" d="M155.14,127.78a13.74,13.74,0,0,0-7.84-5,3,3,0,0,0-5.85-.88,20.23,20.23,0,0,0-6.41.9,13.84,13.84,0,0,0-7.13,5.19,16.38,16.38,0,0,0-2.77,10.08l-9,7.09a0.83,0.83,0,0,0-.27.9,0.79,0.79,0,0,0,.77.52h0s2.22,0,7.17,2.88c0.58,0.33,1.17.7,1.78,1.1,2.3,1.47,4.86,3.12,8.12,3.12,3.65,0,8.19-2.06,14.22-8.7h0.84a27.75,27.75,0,0,0,6.12-.64,3.5,3.5,0,0,0,2.68-2.85C158.17,138.36,158.55,132.34,155.14,127.78Zm-10.6-6.21a1.36,1.36,0,0,1,1.09.86l-1.15-.17a11.18,11.18,0,0,0-1.26-.21A1.27,1.27,0,0,1,144.54,121.57Zm-9,2.79a17.91,17.91,0,0,1,8.39-.58,9.06,9.06,0,0,1,1.63,3.81c0.62,2.76.94,7.67-1.06,15.57A69.74,69.74,0,0,1,126.73,138C126.55,130,131.11,125.72,135.52,124.36Zm-1.1,27.75c-3.12.24-5.55-1.33-7.91-2.84-0.61-.38-1.23-0.78-1.84-1.14a27.94,27.94,0,0,0-6.1-2.76l7.51-5.94c2.6,1.15,11.32,4.78,19.85,5.48C141.57,149.49,137.8,151.85,134.42,152.1Zm21.66-10.83a1.91,1.91,0,0,1-1.46,1.57,27.27,27.27,0,0,1-7,.57c-0.5,0-1-.05-1.53-0.09,2.75-11,1.21-16.67-.08-19.19a12.64,12.64,0,0,1,7.87,4.59C156.92,132.82,156.56,138.34,156.07,141.28Z" transform="translate(-115.88 -119.95)"/>
</svg>
